<?xml version="1.0" standalone="no"?>
<!DOCTYPE svg PUBLIC "-//W3C//DTD SVG 20010904//EN"
 "http://www.w3.org/TR/2001/REC-SVG-20010904/DTD/svg10.dtd">
<svg version="1.0" xmlns="http://www.w3.org/2000/svg"
 width="500.000000pt" height="500.000000pt" viewBox="0 0 500.000000 500.000000"
 preserveAspectRatio="xMidYMid meet">

<g transform="translate(0.000000,500.000000) scale(0.100000,-0.100000)"
fill="#000000" stroke="none">
<path d="M1898 3103 c6 -2 18 -2 25 0 6 3 1 5 -13 5 -14 0 -19 -2 -12 -5z"/>
<path d="M1971 3076 c2 -2 15 -9 29 -15 24 -11 24 -11 6 3 -16 13 -49 24 -35
12z"/>
<path d="M1856 3053 c-6 -14 -5 -15 5 -6 7 7 10 15 7 18 -3 3 -9 -2 -12 -12z"/>
<path d="M4655 3060 c3 -5 8 -10 11 -10 2 0 4 5 4 10 0 6 -5 10 -11 10 -5 0
-7 -4 -4 -10z"/>
<path d="M4720 3060 c0 -5 5 -10 10 -10 6 0 10 5 10 10 0 6 -4 10 -10 10 -5 0
-10 -4 -10 -10z"/>
<path d="M743 3053 c9 -2 25 -2 35 0 9 3 1 5 -18 5 -19 0 -27 -2 -17 -5z"/>
<path d="M1146 3052 c-3 -5 8 -6 25 -4 16 2 29 6 29 8 0 8 -49 4 -54 -4z"/>
<path d="M1488 3053 c19 -4 22 -10 22 -54 0 -37 -4 -49 -15 -49 -8 0 -15 -4
-15 -10 0 -12 10 -13 28 -1 9 5 12 25 10 62 -3 50 -5 54 -28 55 -22 1 -22 0
-2 -3z"/>
<path d="M4113 3053 c15 -2 39 -2 55 0 15 2 2 4 -28 4 -30 0 -43 -2 -27 -4z"/>
<path d="M668 3043 c7 -3 16 -2 19 1 4 3 -2 6 -13 5 -11 0 -14 -3 -6 -6z"/>
<path d="M828 3043 c7 -3 16 -2 19 1 4 3 -2 6 -13 5 -11 0 -14 -3 -6 -6z"/>
<path d="M2588 3043 c6 -2 18 -2 25 0 6 3 1 5 -13 5 -14 0 -19 -2 -12 -5z"/>
<path d="M2648 3043 c6 -2 18 -2 25 0 6 3 1 5 -13 5 -14 0 -19 -2 -12 -5z"/>
<path d="M3008 3043 c12 -2 32 -2 45 0 12 2 2 4 -23 4 -25 0 -35 -2 -22 -4z"/>
<path d="M3488 3043 c6 -2 18 -2 25 0 6 3 1 5 -13 5 -14 0 -19 -2 -12 -5z"/>
<path d="M3638 3043 c7 -3 16 -2 19 1 4 3 -2 6 -13 5 -11 0 -14 -3 -6 -6z"/>
<path d="M1204 2840 c0 -113 2 -159 3 -102 2 56 2 148 0 205 -1 56 -3 10 -3
-103z"/>
<path d="M4128 3033 c7 -3 16 -2 19 1 4 3 -2 6 -13 5 -11 0 -14 -3 -6 -6z"/>
<path d="M785 3020 c27 -12 43 -12 25 0 -8 5 -22 9 -30 9 -10 0 -8 -3 5 -9z"/>
<path d="M1369 3009 l-24 -20 28 17 c15 9 27 18 27 20 0 8 -8 4 -31 -17z"/>
<path d="M2274 3014 c-18 -14 -18 -14 6 -3 31 14 36 19 24 19 -6 0 -19 -7 -30
-16z"/>
<path d="M2357 3019 c8 -9 14 -61 16 -135 l3 -119 2 121 c2 105 0 123 -15 135
-16 12 -17 12 -6 -2z"/>
<path d="M2928 3023 c7 -3 16 -2 19 1 4 3 -2 6 -13 5 -11 0 -14 -3 -6 -6z"/>
<path d="M3091 3027 c2 -2 18 -11 34 -21 l30 -17 -24 20 c-13 12 -28 21 -34
21 -6 0 -8 -1 -6 -3z"/>
<path d="M3510 3020 c-18 -12 -2 -12 25 0 13 6 15 9 5 9 -8 0 -22 -4 -30 -9z"/>
<path d="M3588 3023 c7 -3 16 -2 19 1 4 3 -2 6 -13 5 -11 0 -14 -3 -6 -6z"/>
<path d="M4060 3020 c-18 -12 -2 -12 25 0 13 6 15 9 5 9 -8 0 -22 -4 -30 -9z"/>
<path d="M4160 3026 c0 -2 7 -7 16 -10 8 -3 12 -2 9 4 -6 10 -25 14 -25 6z"/>
<path d="M564 3004 c-18 -14 -18 -14 6 -3 31 14 36 19 24 19 -6 0 -19 -7 -30
-16z"/>
<path d="M2472 3009 c-23 -9 -22 -29 1 -29 7 0 6 4 -3 10 -13 8 -12 10 5 11
11 1 31 1 45 0 23 -1 23 0 5 8 -25 12 -25 12 -53 0z"/>
<path d="M2881 3010 c-6 -3 22 -7 62 -7 80 -2 80 3 0 10 -28 2 -56 1 -62 -3z"/>
<path d="M3717 3009 c7 -7 15 -10 18 -7 3 3 -2 9 -12 12 -14 6 -15 5 -6 -5z"/>
<path d="M3979 2999 l-24 -20 28 17 c15 9 27 18 27 20 0 8 -8 4 -31 -17z"/>
<path d="M4304 2999 c14 -11 26 -28 27 -37 0 -12 2 -13 6 -4 5 14 -33 62 -50
62 -5 0 2 -9 17 -21z"/>
<path d="M1675 3000 c-4 -6 1 -7 11 -3 14 5 16 3 11 -11 -4 -10 -3 -15 3 -11
15 9 12 35 -4 35 -8 0 -18 -4 -21 -10z"/>
<path d="M2588 3003 c6 -2 18 -2 25 0 6 3 1 5 -13 5 -14 0 -19 -2 -12 -5z"/>
<path d="M3361 2996 c-7 -8 -11 -27 -8 -43 4 -27 4 -27 6 4 0 19 8 36 19 42 9
6 12 11 6 11 -6 0 -17 -6 -23 -14z"/>
<path d="M830 2996 c0 -2 8 -10 18 -17 15 -13 16 -12 3 4 -13 16 -21 21 -21
13z"/>
<path d="M925 2992 c4 -8 11 -26 15 -40 7 -22 8 -23 9 -6 1 11 -6 29 -15 40
-8 10 -12 13 -9 6z"/>
<path d="M1817 2993 c-15 -15 -5 -23 26 -22 30 2 30 2 4 6 -15 2 -25 9 -22 14
7 10 1 12 -8 2z"/>
<path d="M2835 2989 c-10 -16 1 -22 26 -14 17 6 19 9 8 16 -19 12 -26 11 -34
-2z"/>
<path d="M4691 2984 c0 -11 3 -14 6 -6 3 7 2 16 -1 19 -3 4 -6 -2 -5 -13z"/>
<path d="M1618 2949 c-21 -20 -38 -43 -38 -51 0 -7 5 -4 11 7 6 11 25 32 43
47 17 14 29 28 26 31 -3 2 -22 -13 -42 -34z"/>
<path d="M2761 2970 c14 -31 19 -36 19 -24 0 6 -7 19 -16 30 -14 18 -14 18 -3
-6z"/>
<path d="M3030 2986 c0 -2 7 -7 16 -10 8 -3 12 -2 9 4 -6 10 -25 14 -25 6z"/>
<path d="M3449 2973 c-13 -16 -12 -17 4 -4 16 13 21 21 13 21 -2 0 -10 -8 -17
-17z"/>
<path d="M4222 2963 c17 -41 30 -53 17 -15 -6 18 -15 35 -20 38 -5 3 -4 -7 3
-23z"/>
<path d="M532 2955 c0 -16 2 -22 5 -12 2 9 2 23 0 30 -3 6 -5 -1 -5 -18z"/>
<path d="M1050 2969 c0 -5 5 -7 10 -4 6 3 10 8 10 11 0 2 -4 4 -10 4 -5 0 -10
-5 -10 -11z"/>
<path d="M1314 2958 l-19 -23 23 19 c21 18 27 26 19 26 -2 0 -12 -10 -23 -22z"/>
<path d="M2219 2963 c-13 -16 -12 -17 4 -4 9 7 17 15 17 17 0 8 -8 3 -21 -13z"/>
<path d="M2667 2959 c4 -13 8 -18 11 -10 2 7 -1 18 -6 23 -8 8 -9 4 -5 -13z"/>
<path d="M2111 2950 c14 -31 19 -36 19 -24 0 6 -7 19 -16 30 -14 18 -14 18 -3
-6z"/>
<path d="M601 2923 c-10 -26 -10 -27 4 -9 8 11 15 23 15 28 0 15 -7 8 -19 -19z"/>
<path d="M3681 2934 c0 -11 3 -14 6 -6 3 7 2 16 -1 19 -3 4 -6 -2 -5 -13z"/>
<path d="M3084 2715 c0 -126 2 -177 3 -112 2 65 2 168 0 230 -1 62 -3 9 -3
-118z"/>
<path d="M3182 2778 c-1 -86 1 -159 6 -161 4 -3 6 43 4 101 -4 197 -8 218 -10
60z"/>
<path d="M4322 2914 c-7 -8 -8 -14 -3 -14 10 0 25 19 20 25 -2 1 -10 -3 -17
-11z"/>
<path d="M3396 2905 c-11 -8 -15 -15 -9 -15 6 0 16 7 23 15 16 19 11 19 -14 0z"/>
<path d="M1270 2889 c0 -5 5 -7 10 -4 6 3 10 8 10 11 0 2 -4 4 -10 4 -5 0 -10
-5 -10 -11z"/>
<path d="M3694 2790 c0 -63 1 -89 3 -57 2 31 2 83 0 115 -2 31 -3 5 -3 -58z"/>
<path d="M1124 2800 c0 -52 1 -74 3 -47 2 26 2 68 0 95 -2 26 -3 4 -3 -48z"/>
<path d="M3941 2874 c0 -11 3 -14 6 -6 3 7 2 16 -1 19 -3 4 -6 -2 -5 -13z"/>
<path d="M2284 2665 c0 -121 2 -169 3 -107 2 62 2 161 0 220 -1 59 -3 8 -3
-113z"/>
<path d="M883 2790 c0 -47 2 -66 4 -42 2 23 2 61 0 85 -2 23 -4 4 -4 -43z"/>
<path d="M4080 2845 c14 -8 30 -14 35 -14 6 0 -1 6 -15 14 -14 8 -29 14 -35
14 -5 0 1 -6 15 -14z"/>
<path d="M1553 2770 c0 -41 2 -58 4 -37 2 20 2 54 0 75 -2 20 -4 3 -4 -38z"/>
<path d="M2164 2755 c0 -49 1 -71 3 -48 2 23 2 64 0 90 -2 26 -3 8 -3 -42z"/>
<path d="M2074 2735 c0 -55 1 -76 3 -47 2 29 2 74 0 100 -2 26 -3 2 -3 -53z"/>
<path d="M3975 2810 c10 -11 20 -20 23 -20 3 0 -3 9 -13 20 -10 11 -20 20 -23
20 -3 0 3 -9 13 -20z"/>
<path d="M4171 2796 c2 -2 15 -9 29 -15 24 -11 24 -11 6 3 -16 13 -49 24 -35
12z"/>
<path d="M709 2771 c11 -7 10 -11 -5 -20 -11 -6 -14 -10 -9 -10 6 -1 21 8 35
19 l25 20 -30 0 c-21 0 -26 -3 -16 -9z"/>
<path d="M3528 2773 c10 -4 9 -9 -5 -19 -13 -11 -8 -10 17 2 48 23 48 24 9 23
-19 0 -28 -3 -21 -6z"/>
<path d="M4060 2750 c19 -11 40 -19 45 -19 6 0 -6 8 -25 19 -19 11 -39 19 -45
19 -5 0 6 -8 25 -19z"/>
<path d="M4247 2749 c7 -7 15 -10 18 -7 3 3 -2 9 -12 12 -14 6 -15 5 -6 -5z"/>
<path d="M3434 2734 c-18 -14 -18 -14 6 -3 31 14 36 19 24 19 -6 0 -19 -7 -30
-16z"/>
<path d="M953 2700 c0 -25 2 -35 4 -22 2 12 2 32 0 45 -2 12 -4 2 -4 -23z"/>
<path d="M3773 2690 c0 -30 2 -43 4 -27 2 15 2 39 0 55 -2 15 -4 2 -4 -28z"/>
<path d="M4291 2728 c8 -7 23 -22 33 -33 14 -15 13 -11 -3 13 -12 17 -27 32
-34 32 -6 0 -5 -5 4 -12z"/>
<path d="M649 2703 c-13 -16 -12 -17 4 -4 9 7 17 15 17 17 0 8 -8 3 -21 -13z"/>
<path d="M3459 2703 c-13 -16 -12 -17 4 -4 16 13 21 21 13 21 -2 0 -10 -8 -17
-17z"/>
<path d="M570 2700 c-9 -6 -10 -10 -3 -10 6 0 15 5 18 10 8 12 4 12 -15 0z"/>
<path d="M3369 2683 l-24 -28 28 24 c25 23 32 31 24 31 -2 0 -14 -12 -28 -27z"/>
<path d="M1674 2675 c4 -16 12 -34 17 -40 5 -5 4 6 -2 25 -15 45 -24 54 -15
15z"/>
<path d="M616 2665 c-3 -9 -5 -29 -5 -43 1 -20 3 -17 9 13 8 43 7 57 -4 30z"/>
<path d="M1123 2600 c0 -36 2 -50 4 -32 2 17 2 47 0 65 -2 17 -4 3 -4 -33z"/>
<path d="M2151 2644 c0 -11 3 -14 6 -6 3 7 2 16 -1 19 -3 4 -6 -2 -5 -13z"/>
<path d="M4362 2640 c0 -14 2 -19 5 -12 2 6 2 18 0 25 -3 6 -5 1 -5 -13z"/>
<path d="M514 2624 c-9 -37 7 -84 36 -102 l25 -14 -25 20 c-21 17 -25 30 -25
71 0 28 -1 51 -2 51 -2 0 -6 -12 -9 -26z"/>
<path d="M873 2580 c0 -41 2 -58 4 -37 2 20 2 54 0 75 -2 20 -4 3 -4 -38z"/>
<path d="M3422 2625 c0 -16 2 -22 5 -12 2 9 2 23 0 30 -3 6 -5 -1 -5 -18z"/>
<path d="M3681 2580 c0 -36 4 -74 8 -85 5 -11 6 12 4 55 -6 98 -11 112 -12 30z"/>
<path d="M3915 2629 c-11 -16 -1 -19 13 -3 7 8 8 14 3 14 -5 0 -13 -5 -16 -11z"/>
<path d="M970 2621 c0 -6 4 -13 10 -16 6 -3 7 1 4 9 -7 18 -14 21 -14 7z"/>
<path d="M1590 2621 c0 -6 4 -13 10 -16 6 -3 7 1 4 9 -7 18 -14 21 -14 7z"/>
<path d="M2061 2614 c0 -11 3 -14 6 -6 3 7 2 16 -1 19 -3 4 -6 -2 -5 -13z"/>
<path d="M3780 2621 c0 -6 4 -13 10 -16 6 -3 7 1 4 9 -7 18 -14 21 -14 7z"/>
<path d="M3322 2595 c0 -16 2 -22 5 -12 2 9 2 23 0 30 -3 6 -5 -1 -5 -18z"/>
<path d="M2120 2590 c-6 -11 -8 -20 -6 -20 3 0 10 9 16 20 6 11 8 20 6 20 -3
0 -10 -9 -16 -20z"/>
<path d="M4000 2605 c0 -5 5 -17 10 -25 5 -8 10 -10 10 -5 0 6 -5 17 -10 25
-5 8 -10 11 -10 5z"/>
<path d="M1253 2555 c0 -27 2 -38 4 -22 2 15 2 37 0 50 -2 12 -4 0 -4 -28z"/>
<path d="M3218 2588 c5 -7 12 -24 15 -38 4 -22 4 -21 6 6 1 21 -5 34 -15 38
-13 5 -14 3 -6 -6z"/>
<path d="M4272 2575 c0 -16 2 -22 5 -12 2 9 2 23 0 30 -3 6 -5 -1 -5 -18z"/>
<path d="M3816 2577 c3 -10 9 -15 12 -12 3 3 0 11 -7 18 -10 9 -11 8 -5 -6z"/>
<path d="M1640 2561 c5 -11 15 -23 21 -27 6 -3 3 5 -6 20 -20 30 -30 35 -15 7z"/>
<path d="M4357 2551 c-4 -17 -3 -21 5 -13 5 5 8 16 6 23 -3 8 -7 3 -11 -10z"/>
<path d="M2020 2540 c-6 -11 -8 -20 -6 -20 3 0 10 9 16 20 6 11 8 20 6 20 -3
0 -10 -9 -16 -20z"/>
<path d="M770 2544 c0 -5 -17 -9 -37 -8 -34 1 -34 1 -5 -3 21 -3 30 -8 26 -16
-4 -7 1 -4 11 5 11 10 16 21 12 24 -4 4 -7 3 -7 -2z"/>
<path d="M3355 2530 c10 -11 20 -20 23 -20 3 0 -3 9 -13 20 -10 11 -20 20 -23
20 -3 0 3 -9 13 -20z"/>
<path d="M3821 2534 c0 -11 3 -14 6 -6 3 7 2 16 -1 19 -3 4 -6 -2 -5 -13z"/>
<path d="M2059 2523 c-13 -16 -12 -17 4 -4 9 7 17 15 17 17 0 8 -8 3 -21 -13z"/>
<path d="M3533 2533 c20 -2 37 -8 37 -13 0 -5 -15 -21 -32 -35 -18 -15 -26
-24 -18 -19 23 11 51 37 61 56 9 16 5 18 -38 16 -44 -1 -45 -2 -10 -5z"/>
<path d="M3940 2536 c0 -2 8 -10 18 -17 15 -13 16 -12 3 4 -13 16 -21 21 -21
13z"/>
<path d="M1797 2519 c7 -7 15 -10 18 -7 3 3 -2 9 -12 12 -14 6 -15 5 -6 -5z"/>
<path d="M981 2487 c-13 -21 -12 -21 5 -5 10 10 16 20 13 22 -3 3 -11 -5 -18
-17z"/>
<path d="M714 2478 l-19 -23 23 19 c21 18 27 26 19 26 -2 0 -12 -10 -23 -22z"/>
<path d="M1140 2498 c-1 -23 26 -58 44 -57 19 0 19 1 2 8 -10 4 -24 18 -32 32
-7 13 -13 21 -14 17z"/>
<path d="M1236 2483 c-6 -14 -5 -15 5 -6 7 7 10 15 7 18 -3 3 -9 -2 -12 -12z"/>
<path d="M1735 2485 c17 -8 37 -14 45 -14 8 0 -1 7 -20 14 -46 18 -64 17 -25
0z"/>
<path d="M1980 2480 c-25 -11 -39 -19 -32 -19 16 -1 82 26 82 33 0 4 -1 6 -2
5 -2 -1 -23 -9 -48 -19z"/>
<path d="M3990 2490 c8 -5 20 -10 25 -10 6 0 3 5 -5 10 -8 5 -19 10 -25 10 -5
0 -3 -5 5 -10z"/>
<path d="M1893 2483 c9 -2 25 -2 35 0 9 3 1 5 -18 5 -19 0 -27 -2 -17 -5z"/>
<path d="M3189 2473 c-13 -16 -12 -17 4 -4 16 13 21 21 13 21 -2 0 -10 -8 -17
-17z"/>
<path d="M3416 2475 c10 -8 23 -15 28 -15 6 0 1 7 -10 15 -10 8 -23 15 -28 15
-6 0 -1 -7 10 -15z"/>
<path d="M617 2469 c7 -7 15 -10 18 -7 3 3 -2 9 -12 12 -14 6 -15 5 -6 -5z"/>
<path d="M3090 2473 c0 -6 8 -17 18 -24 16 -13 16 -13 2 6 -8 11 -16 22 -17
24 -2 2 -3 0 -3 -6z"/>
<path d="M4138 2473 c12 -2 32 -2 45 0 12 2 2 4 -23 4 -25 0 -35 -2 -22 -4z"/>
<path d="M1808 2463 c6 -2 18 -2 25 0 6 3 1 5 -13 5 -14 0 -19 -2 -12 -5z"/>
<path d="M930 2450 c-23 -7 -23 -8 -3 -9 12 -1 25 4 28 9 3 6 5 10 3 9 -2 -1
-14 -5 -28 -9z"/>
<path d="M658 2443 c7 -3 16 -2 19 1 4 3 -2 6 -13 5 -11 0 -14 -3 -6 -6z"/>
<path d="M3468 2443 c6 -2 18 -2 25 0 6 3 1 5 -13 5 -14 0 -19 -2 -12 -5z"/>
<path d="M3733 2443 c9 -2 23 -2 30 0 6 3 -1 5 -18 5 -16 0 -22 -2 -12 -5z"/>
<path d="M4148 2443 c12 -2 30 -2 40 0 9 3 -1 5 -23 4 -22 0 -30 -2 -17 -4z"/>
<path d="M1004 2211 c-94 -57 -100 -207 -11 -266 59 -38 140 -40 187 -5 36 27
19 34 -37 14 -60 -21 -96 -14 -135 28 -24 26 -28 38 -28 90 0 106 63 156 157
124 56 -19 53 -19 53 -1 0 37 -133 48 -186 16z"/>
<path d="M1275 2220 c-3 -5 0 -10 9 -10 27 0 23 -24 -20 -148 -47 -130 -49
-142 -35 -142 5 0 19 25 32 55 l23 55 48 0 48 0 25 -55 c21 -49 41 -66 57 -50
5 5 -90 268 -107 294 -8 14 -72 14 -80 1z m89 -137 c7 -21 4 -23 -33 -23 l-40
0 14 41 c26 73 32 71 59 -18z"/>
<path d="M1489 2204 c19 -24 21 -40 21 -155 0 -122 1 -129 20 -129 18 0 20 7
20 70 0 68 1 70 25 70 13 0 28 -8 33 -17 8 -14 12 -10 21 22 11 42 7 55 -11
37 -7 -7 -25 -12 -40 -12 -27 0 -28 1 -28 55 l0 55 37 0 c20 0 44 -7 54 -16
16 -14 18 -14 24 6 4 13 13 20 23 18 15 -3 18 -23 22 -143 l5 -140 79 -3 c80
-3 95 3 96 38 0 11 -3 11 -12 2 -7 -7 -36 -12 -65 -12 l-53 0 0 55 0 55 34 0
c25 0 36 -5 39 -17 3 -13 9 -7 21 21 18 39 15 59 -6 38 -7 -7 -29 -12 -50 -12
l-38 0 0 55 0 55 40 0 c27 0 42 -5 49 -17 11 -21 17 -17 26 20 l7 27 -207 0
-206 0 20 -26z"/>
<path d="M2125 2218 c-11 -6 -23 -16 -27 -22 -13 -19 -9 -60 8 -84 14 -21 14
-24 -10 -53 -37 -44 -42 -73 -17 -108 33 -46 99 -52 144 -13 17 15 22 14 63
-8 45 -25 72 -22 82 10 3 7 0 10 -6 6 -12 -7 -66 17 -76 32 -3 5 4 26 14 48
11 21 20 44 20 51 0 6 10 19 23 28 l22 16 -29 -3 c-22 -2 -32 -10 -40 -33 -6
-16 -17 -41 -24 -54 l-14 -23 -39 38 -38 37 29 34 c35 39 37 53 13 82 -22 26
-71 35 -98 19z m68 -39 c8 -13 6 -24 -7 -44 -17 -26 -18 -26 -37 -9 -19 17
-25 54 -12 68 12 11 45 2 56 -15z m-11 -156 c44 -43 48 -60 13 -69 -40 -10
-74 3 -81 32 -6 23 11 74 25 74 3 0 22 -17 43 -37z"/>
<path d="M2530 2222 c0 -5 7 -12 15 -16 12 -4 15 -30 15 -146 l0 -140 69 0
c59 0 74 4 97 24 37 31 39 90 4 118 -23 19 -23 20 -7 48 23 38 21 54 -6 86
-21 24 -32 28 -105 32 -52 3 -82 1 -82 -6z m144 -38 c36 -36 9 -94 -45 -94
-28 0 -29 2 -29 48 0 27 3 52 7 55 12 13 51 7 67 -9z m20 -140 c9 -8 16 -26
16 -39 0 -35 -26 -55 -71 -55 l-39 0 0 55 0 55 39 0 c23 0 46 -7 55 -16z"/>
<path d="M2785 2220 c-18 -7 -19 -8 -2 -15 15 -6 17 -23 17 -147 0 -135 1
-139 20 -136 12 2 21 6 20 11 0 4 0 72 0 152 0 157 0 158 -55 135z"/>
<path d="M2932 2207 c-46 -49 -24 -111 53 -150 68 -34 83 -81 33 -105 -22 -10
-34 -10 -67 1 -33 12 -41 12 -45 1 -11 -28 75 -50 125 -32 21 7 36 22 45 44
21 50 2 87 -65 127 -59 35 -77 65 -56 93 9 13 25 18 54 17 30 -1 41 2 41 13 0
10 -13 14 -48 14 -38 0 -53 -5 -70 -23z"/>
<path d="M3127 2223 c-4 -3 -7 -13 -7 -22 0 -13 10 -15 50 -13 l50 4 0 -137
c0 -125 2 -136 18 -133 15 3 17 19 20 136 l3 133 42 -3 c37 -2 42 0 45 20 3
22 1 22 -106 22 -60 0 -112 -3 -115 -7z"/>
<path d="M3370 2221 c0 -5 7 -14 15 -21 12 -10 15 -40 15 -146 0 -127 1 -134
20 -134 18 0 20 7 20 70 0 67 1 70 24 70 28 0 63 -37 90 -98 17 -38 41 -53 58
-36 9 8 -40 97 -68 121 -23 21 -23 23 -5 32 10 6 24 24 31 40 10 26 10 35 -7
63 -10 18 -30 35 -43 39 -37 10 -150 10 -150 0z m138 -37 c43 -30 13 -100 -40
-92 -20 3 -23 9 -26 56 -3 49 -2 52 20 52 13 0 34 -7 46 -16z"/>
<path d="M3722 2213 c-45 -22 -74 -67 -80 -122 -5 -61 16 -111 63 -147 50 -38
131 -40 187 -6 49 30 82 99 75 153 -6 46 -46 103 -87 124 -38 20 -116 19 -158
-2z m162 -42 c25 -25 30 -40 33 -88 7 -98 -44 -151 -131 -140 -60 8 -89 43
-94 115 -5 72 15 117 61 138 45 20 95 10 131 -25z"/>
</g>
</svg>
