<?xml version="1.0" standalone="no"?>
<!DOCTYPE svg PUBLIC "-//W3C//DTD SVG 20010904//EN"
 "http://www.w3.org/TR/2001/REC-SVG-20010904/DTD/svg10.dtd">
<svg version="1.0" xmlns="http://www.w3.org/2000/svg"
 width="742.000000pt" height="342.000000pt" viewBox="0 0 742.000000 342.000000"
 preserveAspectRatio="xMidYMid meet">

<g transform="translate(0.000000,342.000000) scale(0.100000,-0.100000)"
fill="#000000" stroke="none">
<path d="M302 2780 c2 -289 6 -524 11 -522 4 1 284 2 623 2 407 0 613 3 609
10 -4 6 -220 10 -616 10 l-609 0 0 500 0 500 2595 0 2595 0 0 -500 0 -500
-607 0 c-375 0 -614 -4 -623 -10 -10 -6 202 -10 608 -10 342 0 625 0 630 0 4
0 8 235 10 522 l2 523 -2615 0 -2615 0 2 -525z"/>
<path d="M4609 2987 c-45 -30 -69 -80 -69 -144 l0 -53 -55 0 -55 0 0 -35 0
-35 55 0 55 0 0 -105 0 -105 40 0 40 0 0 105 0 105 70 0 70 0 0 35 0 35 -70 0
-70 0 0 40 c0 78 33 110 114 110 43 0 44 1 48 35 l4 35 -72 0 c-57 0 -78 -4
-105 -23z"/>
<path d="M3780 2979 c-92 -28 -140 -106 -140 -230 0 -151 53 -224 179 -243 59
-9 164 12 157 31 -4 8 -6 23 -6 33 0 16 -7 18 -77 13 -65 -4 -83 -1 -109 15
-41 26 -64 78 -64 146 0 107 46 166 129 166 26 0 56 -7 69 -16 21 -15 25 -15
43 2 10 9 19 24 19 33 0 41 -125 72 -200 50z"/>
<path d="M555 2968 c-3 -7 -33 -113 -69 -235 l-64 -223 42 0 42 0 13 50 13 50
78 0 78 0 12 -50 c12 -49 12 -50 51 -50 21 0 39 5 39 11 0 11 -60 222 -106
377 l-25 82 -50 0 c-31 0 -51 -5 -54 -12z m84 -174 c30 -116 31 -114 -35 -114
-41 0 -55 3 -51 13 2 6 15 54 28 104 13 51 26 89 30 85 3 -4 16 -43 28 -88z"/>
<path d="M2564 2949 c3 -17 6 -65 6 -105 l0 -74 40 0 40 0 0 105 0 105 -46 0
-46 0 6 -31z"/>
<path d="M1030 2842 c-16 -17 -30 -39 -30 -49 0 -15 -2 -16 -10 -3 -5 8 -10
27 -10 43 0 27 -1 27 -65 27 l-65 0 0 -35 c0 -32 2 -35 30 -35 l30 0 0 -105 0
-105 -40 0 c-39 0 -40 -1 -40 -35 l0 -35 120 0 120 0 0 35 c0 34 -1 35 -40 35
l-40 0 0 68 c0 44 6 79 18 102 15 31 21 35 57 35 34 0 40 -4 45 -25 5 -21 13
-26 44 -28 l39 -3 -6 46 c-6 58 -31 85 -85 92 -36 5 -45 2 -72 -25z"/>
<path d="M1340 2853 c-110 -57 -119 -261 -14 -329 36 -24 121 -23 163 1 96 56
102 251 9 318 -38 28 -114 33 -158 10z m106 -71 c39 -26 47 -133 13 -176 -39
-50 -103 -26 -118 46 -10 45 3 109 25 125 19 14 62 17 80 5z"/>
<path d="M1741 2844 c-20 -25 -21 -26 -21 -5 0 18 -6 21 -40 21 l-40 0 0 -175
0 -175 40 0 40 0 0 128 c0 135 10 172 44 159 14 -6 16 -26 16 -147 l0 -140 30
0 30 0 0 134 c0 105 3 136 15 146 29 24 35 0 35 -141 l0 -139 40 0 40 0 0 164
c0 159 -1 165 -22 180 -32 23 -64 20 -85 -8 l-19 -24 -21 24 c-28 31 -57 30
-82 -2z"/>
<path d="M2090 2850 c0 -8 -3 -25 -6 -36 -5 -21 -2 -22 71 -26 66 -3 80 -7 96
-27 28 -34 24 -42 -20 -35 -143 23 -245 -95 -162 -188 26 -29 34 -32 84 -32
59 0 91 18 107 59 6 17 9 14 15 -17 l7 -38 59 0 59 0 0 34 c0 30 -3 35 -27 38
l-28 3 -5 102 c-4 90 -8 104 -29 127 -30 32 -67 44 -153 48 -56 3 -68 1 -68
-12z m178 -207 c2 -7 -10 -26 -26 -43 -33 -33 -75 -39 -107 -17 -22 17 -14 63
13 70 33 10 115 2 120 -10z"/>
<path d="M2965 2861 c-71 -18 -109 -65 -98 -123 7 -39 28 -53 118 -80 65 -20
81 -29 83 -46 4 -28 -29 -36 -123 -29 -69 5 -73 4 -79 -16 -13 -51 -10 -55 62
-61 96 -10 170 6 205 44 44 49 31 117 -27 143 -32 15 -40 18 -113 37 -31 8
-43 16 -43 29 0 26 19 31 110 31 l78 0 7 31 c4 17 4 33 0 37 -9 10 -145 12
-180 3z"/>
<path d="M4090 2850 c0 -8 -3 -25 -6 -36 -5 -21 -2 -22 71 -26 66 -3 80 -7 96
-27 28 -34 24 -42 -20 -35 -143 23 -245 -95 -162 -188 26 -29 34 -32 84 -32
59 0 91 18 107 59 6 17 9 14 15 -17 l7 -38 59 0 59 0 0 34 c0 30 -3 35 -27 38
l-28 3 -5 102 c-4 90 -8 104 -29 127 -30 32 -67 44 -153 48 -56 3 -68 1 -68
-12z m178 -207 c2 -7 -10 -26 -26 -43 -33 -33 -75 -39 -107 -17 -22 17 -14 63
13 70 33 10 115 2 120 -10z"/>
<path d="M4945 2856 c-64 -29 -95 -87 -95 -175 0 -122 99 -194 240 -175 50 7
50 7 50 43 l0 36 -81 0 c-77 0 -82 1 -107 30 l-25 30 116 3 117 3 0 52 c0 60
-23 112 -62 140 -34 25 -113 32 -153 13z m117 -83 c9 -10 19 -28 22 -40 7 -23
6 -23 -73 -23 -89 0 -97 7 -60 54 25 32 87 37 111 9z"/>
</g>
</svg>
